<?xml version="1.0" encoding="UTF-8"?>
<svg id="Calque_1" xmlns="http://www.w3.org/2000/svg" version="1.1" viewBox="0 0 1000 800">
  <!-- Generator: Adobe Illustrator 29.4.0, SVG Export Plug-In . SVG Version: 2.1.0 Build 152)  -->
  <defs>
    <style>
      .st0 {
        fill: #fff;
      }
    </style>
  </defs>
  <path class="st0" d="M752.6,135v506h-196.5c-.8,0-12.1,5.7-14.5,6.5-16.8,5.6-34,9.6-51.5,12.5-1.7-1.1.2-2.2,1.1-2.9,7.1-5.2,17.3-9,23.3-16.2h-73.5c-14.6,10.1-28.9,20.9-41,34-2.4,0-21-29.5-23-34h-94.5V135h95c0-5.3,3.8-17.2,8.7-19.8l68.8-14.1c5.1.3,23.9,30.4,29.9,33.9l52.8-.2c4-1.2,22-24.6,26.7-29.3,1.8-1.8,3.8-4.2,6.5-4.3l75.1,13.8c5.8,2.3,5.1,15.3,9.9,20.1h96.5,0ZM640.6,125.3c-3.7-1-54.5-9.4-59.9-9.4-6.3,0-4,.1-10.1,5.1-1.5,1.2-16.8,19.9-15.5,21.4,7-5.8,22.7-14.6,32.1-14.1,52.3,2.8,64.9,29.3,66.2,30.2M458.1,129.9c-.2-2.7-1.1-7.6-4.9-10.6-4.3-3.4-10.1-2.4-16.3-1-23.1,5.5-37.5,7.1-45.6,21-.8,1.4-6.3,17.1-10.3,22-7.2,9,40.6-36.5,77-31.4h0ZM374.6,145h-82v486h79l-11.5-23c-3.8-13.7-9.2-26.8-12.2-40.8-4.9-23.4-4.6-46.3-4.3-70.2-1.9-2.6-10.2,15.4-10.8,16.7-5.3,12.5-9.1,26.8-11.2,40.3l-4-23.5c-3.8-44.8,5.2-92.4,30-130,12.9,3.3,25.1,4.3,38.3,2.4,21.2-3,38-10.9,57-19,8-3.4,35.5-5.6,45.2-5.9,2,0,4.1-.2,5.5,1.6-51.6,14.6-86,68.4-79,121.5-3.7-2.9-6.2-8.9-8.2-13.3-8.1-18-11.6-39.1-9.8-58.7-2.7-.5-1.7.6-2.4,2-27.7,56.2-19.5,128.7,8.9,183,18.9-25.2,36.2-53.9,46-84,2.3-7.2,3.5-14.8,6-22,5,23.7,5.3,48.9-2.5,72,.8.9,8.3-5.1,9.5-6,41.3-32.2,63.2-86,52.5-138l9.5,16c8.8,22.6,12.3,48.6,4.5,72,1.9.4,2.4-1,3.4-2.1,42.1-46.1,38.3-124.5-5.9-167.9-4.8-4.7-11.4-8.5-15.5-14,22.3,4.8,44,20.1,55.8,39.7,13.9,22.9,21.5,50.6,17.2,77.3,2.3.6,1.7-.5,2.3-1.3,35.3-41,35.3-118.1-.3-159.2-26.5-30.5-81.6-28.6-115.7-13.7-3.1,1.4-26.2,15.3-27.3,14.2,9.7-19.9,20.2-39.5,32.6-57.9,4.6-3.2,19.2.3,24.6,2.2,7.5,2.7,12,7.2,18.8,10.7-1.1-12.9-7-27.4-20-32.5-6.9-2.7-26.4-2.3-33.2.8-3.5,1.6-5.3,4.9-8.8,5.7,0-8,5.2-13.4,8.5-20,4.6-9.1,10.1-18.6,16.9-26.2,2.9-3.2,4.4-2.4,6.8-9.2,2-5.7-4.6.5-5.8,1.2-28.4,15-41.4,39.9-56.5,66.5-8.9,15.6-12.6,15.9-25.3,26.7-21.7,18.6-41.4,38.7-63.9,56.3-2.7,2.1-2.7,2.3-5.5,6.5l32.8,4.2c-2.6,9.4,2.4,16.6-5.6,23.8-2.8,2.6-18.7,10.6-19.2,12.8-.3,1.5,6.9,9.2,8.5,10.2,2.7,1.6,13.8,4.5,17.1,4.9,29.2,3.7,53.2-7.5,76-24.5,11-.3,21.9-2.4,32.8-3.2,1.2,0,5.5-.8,5.5,1-6,2.1-13.5,4.6-19,7.5-14,7.3-32.3,20.8-46.9,25.1-22.4,6.5-46.3,12.1-68.7,1.6-22.5-10.5-28.8-36.3-37.9-57.2v-3c0,0,75.6-68.6,75.6-68.6.5-2.4-1.9-1.6-3.2-1.2-6.7,2.2-14.2,7.1-20.3,10.7-.7.2-.6-.8-.5-1.5,1.8-10.1,17.1-32.7,24-41,2.4-2.9,8.1-5.2,6.5-8.5l-12.5,8c5.2-13.6,16.5-24,28-32.5.4-2.1-.8-1.7-2.3-1.3-6.2,1.8-12.5,4-18.7,5.8-1.7-1.6,11.6-15.4,13.5-17,9.2-7.4,21-11.3,32.5-7,3.5-3.8-18.1-16.1-22.5-16.1s-21.3,10.6-27.2,12.8c-5,1.9-11.1,2.9-16.3,4.2l11-33h0ZM647.4,173.5c6.3,4.1,39.5,36.4,40.2,56.5,0,0-19.1-10.4-27.8-12.7-6.9-1.8-28.2-4.8-28.2-4.8,19.6,9.1,37.5,21.8,52,38,4.1,4.6,28.9,36.7,26,40.5-21.8-16.2-48.3-30.2-76-30.5,41.3,23.7,72,63.4,89.8,107.2l4.7,18.3c-5.6-7-11.4-13.9-18-20-1.4-1.3-12.5-11-13.5-10,4.5,13,10.9,25.6,14.5,39,15.2,56.8,1,121.1-32.7,168.3-8,11.2-18.2,25.8-31.8,29.7,2.9-10.6,7.4-21,9.7-31.8.9-4.3,2.8-14,2.9-17.9,0-.9-.3-2.9-1.1-3.3-7,11.3-13,23.4-20.7,34.3-9.9,14-23.2,25.7-35.6,37.5l-25.3,19.2h166V145h-84l11.3,36.2-22.3-13.1-14-5.1M614.4,174.9c-22.4-4.7-43.6,8.1-54.1,16.3-1.2.9-5.7,5.2-5.3,7,5.3-.4,13.9-4.7,19.2-6.1,18-4.8,39.8.3,55.2,3.7,2.2.5,35.2,11.4,35.4,11.6M427.6,218c-19.5-4.4-24.6,8.9-23,26l23-26ZM493.1,254.7c0-2.6-2.1-4.8-4.8-4.8s-4.8,2.1-4.8,4.8,2.1,4.8,4.8,4.8,4.8-2.1,4.8-4.8ZM456.6,631h70.5c34.9-33.6,64-76.1,71-125-1.7-.1-2.4,1.6-3.3,2.7-4.6,5.7-9,14.1-13.8,20.2-20.8,26.9-45.3,49.3-73.1,68.9l-51.3,33.2h0Z"/>
</svg>