<?xml version="1.0" encoding="UTF-8"?>
<svg id="Calque_1" data-name="Calque 1" xmlns="http://www.w3.org/2000/svg" viewBox="0 0 1000 800">
  <defs>
    <style>
      .cls-1 {
        fill: #fff;
      }
    </style>
  </defs>
  <path class="cls-1" d="M603.03,137.5v506h-196.5c-.83,0-12.11,5.68-14.52,6.48-16.83,5.61-33.95,9.56-51.46,12.54-1.68-1.12.21-2.17,1.14-2.86,7.13-5.22,17.3-9.03,23.34-16.16h-73.5c-14.64,10.13-28.85,20.88-41,33.98-2.45,0-20.96-29.48-23-33.98h-94.5V137.5h95c.02-5.34,3.79-17.22,8.73-19.77l68.85-14.14c5.14.31,23.86,30.35,29.92,33.93l52.8-.21c3.96-1.18,21.95-24.56,26.68-29.32,1.75-1.76,3.79-4.23,6.47-4.33l75.14,13.78c5.82,2.33,5.11,15.35,9.92,20.08h96.5ZM490.98,127.74c-3.66-.99-54.48-9.41-59.94-9.42-6.28,0-4.01.14-10.13,5.13-1.53,1.25-16.75,19.88-15.46,21.4,7.03-5.77,22.68-14.62,32.1-14.12,52.33,2.82,64.86,29.33,66.2,30.2M308.53,132.37c-.24-2.68-1.09-7.64-4.85-10.62-4.29-3.41-10.11-2.45-16.31-.98-23.11,5.51-37.48,7.11-45.6,20.96-.8,1.36-6.32,17.09-10.27,22.02-7.21,9,40.6-36.52,77.03-31.38ZM225.03,147.5h-82v486h79l-11.5-23c-3.83-13.7-9.24-26.83-12.19-40.81-4.95-23.43-4.62-46.35-4.32-70.19-1.94-2.62-10.21,15.44-10.75,16.74-5.28,12.55-9.09,26.81-11.25,40.26l-3.98-23.5c-3.79-44.77,5.17-92.44,30-130.05,12.86,3.3,25.11,4.32,38.35,2.42,21.25-3.05,38.02-10.91,56.97-19.03,7.96-3.41,35.52-5.63,45.17-5.9,2.01-.06,4.13-.23,5.5,1.58-51.59,14.6-86.01,68.38-79,121.49-3.73-2.86-6.2-8.94-8.17-13.32-8.06-18.01-11.58-39.07-9.83-58.67-2.66-.51-1.74.57-2.44,2-27.69,56.19-19.49,128.69,8.95,182.97,18.9-25.19,36.21-53.89,45.96-84.02,2.34-7.24,3.46-14.82,6.04-21.96,5.03,23.66,5.34,48.93-2.5,71.99.78.86,8.29-5.11,9.47-6.02,41.32-32.2,63.19-86.02,52.54-137.97l9.49,16c8.79,22.62,12.32,48.65,4.51,71.99,1.93.42,2.39-.98,3.4-2.09,42.13-46.14,38.26-124.47-5.88-167.93-4.76-4.68-11.41-8.55-15.52-13.97,22.28,4.77,43.97,20.12,55.81,39.68,13.85,22.87,21.47,50.56,17.2,77.3,2.32.63,1.67-.55,2.29-1.27,35.32-41.05,35.32-118.09-.32-159.2-26.48-30.55-81.65-28.62-115.66-13.71-3.15,1.38-26.19,15.3-27.31,14.18,9.72-19.91,20.19-39.53,32.57-57.92,4.59-3.22,19.25.28,24.65,2.2,7.5,2.66,11.97,7.19,18.76,10.73-1.07-12.93-7-27.43-20-32.49-6.9-2.69-26.39-2.32-33.23.75-3.47,1.55-5.26,4.87-8.75,5.74-.07-8,5.2-13.37,8.52-19.97,4.6-9.15,10.12-18.62,16.9-26.19,2.91-3.25,4.37-2.38,6.75-9.17,1.99-5.68-4.58.53-5.83,1.19-28.42,14.96-41.4,39.85-56.53,66.47-8.88,15.63-12.61,15.85-25.29,26.71-21.67,18.56-41.4,38.67-63.91,56.29-2.7,2.11-2.68,2.3-5.48,6.55l32.84,4.18c-2.65,9.35,2.36,16.59-5.63,23.8-2.83,2.56-18.72,10.6-19.18,12.79-.31,1.49,6.88,9.24,8.48,10.21,2.66,1.61,13.78,4.47,17.11,4.89,29.22,3.67,53.17-7.53,75.95-24.54,10.97-.27,21.92-2.41,32.8-3.2,1.19-.09,5.47-.83,5.48.98-5.99,2.11-13.49,4.57-19.04,7.47-13.95,7.28-32.3,20.83-46.91,25.09-22.41,6.54-46.32,12.09-68.74,1.65-22.49-10.47-28.75-36.27-37.93-57.17l.09-2.98,75.52-68.55c.48-2.38-1.94-1.64-3.23-1.22-6.72,2.19-14.16,7.08-20.27,10.73-.7.23-.63-.78-.5-1.5,1.79-10.13,17.07-32.67,24.04-40.96,2.45-2.91,8.09-5.24,6.47-8.53l-12.5,7.99c5.25-13.61,16.51-24.03,27.99-32.51.4-2.06-.8-1.7-2.28-1.28-6.22,1.76-12.47,4.03-18.7,5.79-1.73-1.64,11.6-15.43,13.52-16.97,9.22-7.43,20.97-11.31,32.47-7.03,3.49-3.83-18.1-16.05-22.49-16.06s-21.3,10.62-27.23,12.84c-4.99,1.86-11.05,2.9-16.27,4.22l10.99-33ZM497.87,176c6.32,4.12,39.51,36.42,40.15,56.49,0,0-19.1-10.42-27.77-12.72-6.92-1.83-28.22-4.78-28.22-4.78,19.63,9.1,37.54,21.84,52.02,37.98,4.12,4.59,28.92,36.69,25.96,40.53-21.84-16.22-48.26-30.16-75.98-30.5,41.29,23.73,71.97,63.44,89.76,107.24l4.74,18.26c-5.62-6.98-11.37-13.94-17.98-20.02-1.4-1.29-12.52-11.04-13.52-9.97,4.45,13.05,10.93,25.6,14.51,38.98,15.16,56.75,1.05,121.05-32.68,168.34-8.02,11.24-18.25,25.76-31.83,29.66,2.9-10.62,7.42-20.96,9.74-31.75.92-4.28,2.8-13.95,2.9-17.94.02-.86-.3-2.89-1.14-3.3-7.05,11.32-12.95,23.42-20.67,34.33-9.91,14-23.19,25.7-35.58,37.5l-25.26,19.17h166V147.5h-84l11.31,36.16-22.32-13.1-13.97-5.14M464.82,177.39c-22.35-4.71-43.59,8.12-54.13,16.34-1.19.92-5.67,5.23-5.31,7.04,5.3-.39,13.87-4.7,19.25-6.15,18.03-4.83,39.84.3,55.16,3.7,2.25.5,35.2,11.44,35.4,11.57M278.02,220.5c-19.55-4.44-24.58,8.94-22.99,25.99l22.99-25.99ZM343.48,257.22c0-2.64-2.14-4.79-4.79-4.79s-4.79,2.14-4.79,4.79,2.14,4.79,4.79,4.79,4.79-2.14,4.79-4.79ZM307.03,633.5h70.5c34.89-33.56,64.03-76.13,70.99-125.01-1.71-.13-2.42,1.58-3.32,2.68-4.64,5.7-8.96,14.07-13.75,20.25-20.84,26.9-45.28,49.35-73.11,68.89l-51.31,33.19Z"/>
</svg>